<svg width="150" height="148" viewBox="0 0 150 148" fill="none" xmlns="http://www.w3.org/2000/svg">
<path d="M88.3048 78.5437C88.378 78.4949 88.4513 78.446 88.5367 78.4094C88.6588 78.3484 88.7809 78.2873 88.9029 78.2385C89.2936 77.9944 89.6476 77.7136 89.9649 77.3962C91.0147 76.3342 91.6617 74.845 91.6617 73.2093C91.6617 71.5735 91.0147 70.0721 89.9649 69.0223C89.1227 68.1556 87.9996 67.5575 86.7301 67.3866C86.5592 67.3866 86.3883 67.3622 86.2296 67.3377C86.1198 67.3377 86.0099 67.3255 85.9 67.3255C84.3253 67.3255 82.9093 67.9725 81.8717 69.0101C81.7985 69.1077 81.7253 69.2176 81.6276 69.3031C81.5788 69.3519 81.53 69.4007 81.4811 69.4495C80.6511 70.4749 80.1506 71.7811 80.1506 73.2337C80.1506 74.8816 80.7975 76.3709 81.8473 77.4206C82.8849 78.4704 84.3253 79.1296 85.9 79.1296C86.7667 79.0686 87.5724 78.8855 88.3048 78.5437ZM111.461 9.23285C126.647 18.4491 139.244 33.8908 145.665 53.3852C152.086 72.8797 151.134 92.8014 144.396 109.22C137.596 125.797 124.926 138.834 107.995 144.412C96.9595 148.05 68.8348 147.818 56.3715 145.352C24.2673 139.005 0 109.659 0 74.43C0 18.1683 66.6986 -17.9397 111.461 9.23285ZM108.471 14.1766C94.5791 5.74167 78.3562 3.03174 63.0975 8.06098C47.8511 13.078 36.401 24.8943 30.2365 39.9454C24.0232 55.1064 23.1443 73.5388 29.0891 91.6661C29.1135 91.7394 29.1379 91.8004 29.1623 91.8736C35.1559 109.989 46.8013 124.295 60.8148 132.803C74.7185 141.238 90.9415 143.948 106.188 138.919C121.434 133.902 132.884 122.086 139.049 107.035C145.274 91.837 146.141 73.368 140.16 55.2041C134.178 37.0524 122.509 22.6971 108.471 14.1766ZM89.8062 61.9545C90.0748 62.0522 90.3311 62.162 90.5875 62.2719L109.496 35.5876C107.616 29.655 104.967 26.0784 101.684 24.4549C98.6441 22.9412 94.8477 23.0022 90.4654 24.345L89.8062 61.9545ZM95.2749 65.995C95.7876 66.6786 96.2393 67.4232 96.5933 68.2166L126.83 67.7894C128.038 61.3686 127.281 55.3506 124.95 50.4312C122.667 45.6217 118.846 41.8375 113.903 39.7135L95.2749 65.995ZM97.6309 74.1858C97.3867 77.0544 96.1416 79.6423 94.2374 81.571C94.1519 81.6564 94.0665 81.7419 93.9566 81.8396L112.584 114.2C119.701 110.892 124.498 106.4 126.915 100.211C129.466 93.6558 129.479 85.05 126.879 73.7708L97.6309 74.1858ZM88.7198 84.7326C87.8165 84.9645 86.8644 85.0866 85.8878 85.0866C85.6559 85.0866 85.4484 85.0744 85.2287 85.0744L75.8782 118.717C78.1853 121.915 81.53 124.222 85.2287 125.552C88.1705 126.615 91.3565 127.054 94.4449 126.859C97.4478 126.651 100.341 125.833 102.794 124.344C105.028 122.989 106.908 121.085 108.19 118.595L88.7198 84.7326ZM79.5524 83.1823C78.8322 82.7185 78.1731 82.1691 77.5871 81.571C76.9035 80.8752 76.2932 80.094 75.8049 79.2517L46.8135 88.358C47.4483 96.9029 49.6943 103.568 53.6982 108.194C57.5068 112.589 63.0487 115.213 70.4583 115.946L79.5524 83.1823ZM74.157 73.4778C74.157 73.3802 74.157 73.2703 74.157 73.1726C74.157 71.1585 74.6575 69.242 75.5486 67.5697L48.4614 41.7887C43.2491 47.648 39.8556 53.8247 38.9523 60.4408C38.0489 67.1913 39.7091 74.5642 44.7139 82.7307L74.157 73.4778ZM79.5646 63.1508C80.8342 62.3207 82.2746 61.7348 83.8371 61.454L84.5084 23.344C82.4699 21.2689 79.8454 20.097 76.9646 19.6698C74.0105 19.2303 70.8001 19.5843 67.6629 20.5731C64.4525 21.5984 61.3519 23.2586 58.7274 25.4558C55.2729 28.3367 52.5996 32.1086 51.5376 36.4543L79.5646 63.1508Z" fill="#FFCE01"/>
</svg>
